<svg xmlns="http://www.w3.org/2000/svg"
 xmlns:xlink="http://www.w3.org/1999/xlink"
 width="27px" height="23px"  viewBox="0 0 27 23">
<path fill-rule="evenodd"  fill="#2aacc8"
 d="M19.82489,16.006958 C19.82489,16.006958 18.267273,16.006958 18.267273,16.006958 C18.267273,16.006958 15.116333,13.154663 15.116333,13.154663 C17.01184,12.527466 18.131226,11.567505 18.662903,10.991455 C18.662903,10.991455 18.662903,10.369873 18.662903,10.369873 C18.007996,10.487305 16.53357,9.977539 17.1474,9.675781 C17.462158,9.521118 17.640198,9.227539 17.745544,8.951294 C17.689209,8.776123 17.651855,8.592163 17.641357,8.399414 C17.641357,8.399414 17.626587,8.128906 17.626587,8.128906 C17.589355,8.141113 17.551636,8.152954 17.510437,8.152954 C17.297363,8.152954 17.124634,7.977051 17.124634,7.760132 C17.124634,7.760132 17.124634,6.9747314 17.124634,6.9747314 C17.124634,6.7578125 17.297363,6.581909 17.510437,6.581909 C17.52185,6.581909 17.531494,6.5876465 17.542603,6.588623 C17.542603,6.588623 17.514893,6.0805664 17.514893,6.0805664 C17.438477,4.6796875 18.471313,3.4736328 19.82666,3.4736328 C21.181824,3.4736328 22.21344,4.6796875 22.135742,6.0805664 C22.135742,6.0805664 22.107483,6.588501 22.107483,6.588501 C22.118591,6.5875244 22.128113,6.581909 22.139343,6.581909 C22.352417,6.581909 22.525146,6.7578125 22.525146,6.9747314 C22.525146,6.9747314 22.525146,7.760132 22.525146,7.760132 C22.525146,7.977051 22.352417,8.152954 22.139343,8.152954 C22.097778,8.152954 22.059692,8.141113 22.022034,8.128662 C22.022034,8.128662 22.007019,8.399414 22.007019,8.399414 C21.994934,8.618774 21.942444,8.823853 21.87146,9.019897 C21.980042,9.275024 22.153442,9.533936 22.442017,9.675781 C23.037964,9.96875 21.666626,10.456665 20.986877,10.377441 C20.986877,10.377441 20.986877,10.991455 20.986877,10.991455 C21.547363,11.598877 22.750366,12.637695 24.8396,13.258057 C24.8396,13.258057 25.996826,14.174438 25.996826,15.090698 C25.996826,15.090698 25.996826,16.006958 25.996826,16.006958 C25.996826,16.006958 19.82489,16.006958 19.82489,16.006958 ZM15.954895,9.459106 C15.886353,9.459106 15.823608,9.440308 15.761963,9.420532 C15.761963,9.420532 15.737244,9.852417 15.737244,9.852417 C15.6698,11.031128 15.00824,12.036133 14.059753,12.620728 C14.059753,12.620728 14.059753,13.987427 14.059753,13.987427 C14.981506,14.956421 16.959595,16.613647 20.39508,17.603271 C20.39508,17.603271 22.298096,19.065186 22.298096,20.526978 C22.298096,20.526978 22.298096,21.98877 22.298096,21.98877 C22.298096,21.98877 12.148987,21.98877 12.148987,21.98877 C12.148987,21.98877 1.9998779,21.98877 1.9998779,21.98877 C1.9998779,21.98877 1.9998779,20.526978 1.9998779,20.526978 C1.9998779,19.065186 3.902771,17.603271 3.902771,17.603271 C7.33844,16.613647 9.316467,14.956421 10.238281,13.987427 C10.238281,13.987427 10.238281,12.623291 10.238281,12.623291 C9.287781,12.0390625 8.624878,11.033081 8.558411,9.852417 C8.558411,9.852417 8.53418,9.420898 8.53418,9.420898 C8.4729,9.440308 8.410828,9.459106 8.343079,9.459106 C7.992737,9.459106 7.708679,9.178589 7.708679,8.83252 C7.708679,8.83252 7.708679,7.57959 7.708679,7.57959 C7.708679,7.2335205 7.992737,6.953003 8.343079,6.953003 C8.361816,6.953003 8.3776245,6.962158 8.396057,6.963623 C8.396057,6.963623 8.350586,6.153076 8.350586,6.153076 C8.224915,3.918457 9.923279,1.9943848 12.151794,1.9943848 C14.380249,1.9943848 16.07666,3.918457 15.948853,6.153076 C15.948853,6.153076 15.902466,6.963501 15.902466,6.963501 C15.920654,6.962036 15.936279,6.953003 15.954895,6.953003 C16.305176,6.953003 16.589172,7.2335205 16.589172,7.57959 C16.589172,7.57959 16.589172,8.83252 16.589172,8.83252 C16.589172,9.178589 16.305176,9.459106 15.954895,9.459106 Z"/>
</svg>