<svg xmlns="http://www.w3.org/2000/svg"
 xmlns:xlink="http://www.w3.org/1999/xlink"
 width="32px" height="28px"  viewBox="0 0 32 28">
<path fill-rule="evenodd"  fill="#ffffff"
 d="M27.632751,18.936646 C27.632751,18.936646 26.67511,24.008423 26.67511,24.008423 C26.67511,24.008423 5.3424683,24.008423 5.3424683,24.008423 C5.3424683,24.008423 4.3847656,18.936646 4.3847656,18.936646 C4.3847656,18.936646 1.9996948,18.936646 1.9996948,18.936646 C1.9996948,18.936646 1.9996948,26.999634 1.9996948,26.999634 C1.9996948,26.999634 30.017883,26.999634 30.017883,26.999634 C30.017883,26.999634 30.017883,18.936646 30.017883,18.936646 C30.017883,18.936646 27.632751,18.936646 27.632751,18.936646 ZM27.028076,9.928101 C27.028076,9.928101 20.006226,9.928101 20.006226,9.928101 C20.006226,9.928101 20.006226,6.9976807 20.006226,6.9976807 C20.006226,6.9976807 12.011353,6.9976807 12.011353,6.9976807 C12.011353,6.9976807 12.011353,9.928101 12.011353,9.928101 C12.011353,9.928101 5.05719,9.928101 5.05719,9.928101 C5.05719,9.928101 15.971924,21.338867 15.971924,21.338867 C15.971924,21.338867 27.028076,9.928101 27.028076,9.928101 ZM20.006226,1.9638672 C20.006226,1.9638672 12.011353,1.9638672 12.011353,1.9638672 C12.011353,1.9638672 12.011353,3.0297852 12.011353,3.0297852 C12.011353,3.0297852 20.006226,3.0297852 20.006226,3.0297852 C20.006226,3.0297852 20.006226,1.9638672 20.006226,1.9638672 ZM20.006226,3.9553223 C20.006226,3.9553223 12.011353,3.9553223 12.011353,3.9553223 C12.011353,3.9553223 12.011353,5.9935303 12.011353,5.9935303 C12.011353,5.9935303 20.006226,5.9935303 20.006226,5.9935303 C20.006226,5.9935303 20.006226,3.9553223 20.006226,3.9553223 Z"/>
</svg>